<svg width="33" height="41" viewBox="0 0 33 41" fill="none" xmlns="http://www.w3.org/2000/svg">
<path d="M16.3077 38.4593C8.92681 31.0784 1.5459 24.4693 1.5459 16.3166C1.5459 8.16385 8.15499 1.55475 16.3077 1.55475C24.4605 1.55475 31.0695 8.16385 31.0695 16.3166C31.0695 20.9568 28.6785 25.097 25.2574 29.164" stroke="#EB3C81" stroke-width="3.01887" stroke-linecap="round" stroke-linejoin="round"/>
<mask id="mask0_2153_6662" style="mask-type:alpha" maskUnits="userSpaceOnUse" x="1" y="1" width="31" height="40">
<path d="M16.3077 38.4593C17.5556 37.2115 17.851 40.5377 17.851 40.5377C17.851 40.5377 31.0695 23.091 31.0695 16.3166C31.0695 8.16385 24.4605 1.55475 16.3077 1.55475C8.15499 1.55475 1.5459 8.16385 1.5459 16.3166C1.5459 19.9931 3.04688 23.3557 5.37196 26.6167C5.56212 26.8834 6.67075 25.8539 6.87157 26.1193C9.08518 29.0456 11.8599 31.9207 14.8271 34.8657C15.0388 35.0757 14.4019 36.5645 14.6146 36.7754C15.1768 37.3329 15.7422 37.8938 16.3077 38.4593Z" fill="#D9D9D9"/>
</mask>
<g mask="url(#mask0_2153_6662)">
<rect x="8.23438" y="10.0125" width="16.6879" height="26.7039" rx="3.29091" transform="rotate(18.0468 8.23438 10.0125)" stroke="#EB3C81" stroke-width="3.01887"/>
<rect x="8.23438" y="10.0125" width="16.6879" height="26.7039" rx="3.29091" transform="rotate(18.0468 8.23438 10.0125)" stroke="#EB3C81" stroke-width="3.01887"/>
<rect x="10.5537" y="15.6063" width="8.92486" height="16.7648" transform="rotate(18.0468 10.5537 15.6063)" fill="#184366"/>
</g>
</svg>
