<svg width="138" height="41" viewBox="0 0 138 41" fill="none" xmlns="http://www.w3.org/2000/svg">
<path d="M16.3077 38.4593C8.92681 31.0784 1.5459 24.4693 1.5459 16.3166C1.5459 8.16385 8.15499 1.55475 16.3077 1.55475C24.4605 1.55475 31.0695 8.16385 31.0695 16.3166C31.0695 20.9568 28.6785 25.097 25.2574 29.164" stroke="#EB3C81" stroke-width="3.01887" stroke-linecap="round" stroke-linejoin="round"/>
<mask id="mask0_2153_6661" style="mask-type:alpha" maskUnits="userSpaceOnUse" x="1" y="1" width="31" height="40">
<path d="M16.3077 38.4593C17.5556 37.2115 17.851 40.5377 17.851 40.5377C17.851 40.5377 31.0695 23.091 31.0695 16.3166C31.0695 8.16385 24.4605 1.55475 16.3077 1.55475C8.15499 1.55475 1.5459 8.16385 1.5459 16.3166C1.5459 19.9931 3.04688 23.3557 5.37196 26.6167C5.56212 26.8834 6.67075 25.8539 6.87157 26.1193C9.08518 29.0456 11.8599 31.9207 14.8271 34.8657C15.0388 35.0757 14.4019 36.5645 14.6146 36.7754C15.1768 37.3329 15.7422 37.8938 16.3077 38.4593Z" fill="#D9D9D9"/>
</mask>
<g mask="url(#mask0_2153_6661)">
<rect x="8.23438" y="10.0125" width="16.6879" height="26.7039" rx="3.29091" transform="rotate(18.0468 8.23438 10.0125)" stroke="#EB3C81" stroke-width="3.01887"/>
<rect x="8.23438" y="10.0125" width="16.6879" height="26.7039" rx="3.29091" transform="rotate(18.0468 8.23438 10.0125)" stroke="#EB3C81" stroke-width="3.01887"/>
<rect x="10.5537" y="15.6063" width="8.92486" height="16.7648" transform="rotate(18.0468 10.5537 15.6063)" fill="#184366"/>
</g>
<path d="M41.5923 30V10.2036H48.0052L52.6337 23.6986L57.2343 10.2036H63.6472V30H58.7957V18.0106L54.4739 29.9442H50.7377L46.4438 18.0106V30H41.5923ZM74.1029 30.3346C72.5229 30.3346 71.138 30.0093 69.9484 29.3587C68.7773 28.7081 67.8572 27.7973 67.188 26.6262C66.5375 25.4552 66.2122 24.0797 66.2122 22.4997C66.2122 20.9197 66.5375 19.5441 67.188 18.3731C67.8572 17.202 68.7773 16.2912 69.9484 15.6406C71.138 14.99 72.5229 14.6647 74.1029 14.6647C75.6829 14.6647 77.0584 14.99 78.2294 15.6406C79.4005 16.2912 80.3113 17.202 80.9619 18.3731C81.6311 19.5441 81.9657 20.9197 81.9657 22.4997C81.9657 24.0797 81.6311 25.4552 80.9619 26.6262C80.3113 27.7973 79.4005 28.7081 78.2294 29.3587C77.0584 30.0093 75.6829 30.3346 74.1029 30.3346ZM74.1029 26.7935C75.0323 26.7935 75.7479 26.4218 76.2498 25.6782C76.7703 24.9347 77.0305 23.8752 77.0305 22.4997C77.0305 21.1427 76.7703 20.0925 76.2498 19.349C75.7479 18.5868 75.0323 18.2058 74.1029 18.2058C73.1549 18.2058 72.4206 18.5868 71.9002 19.349C71.3983 20.0925 71.1473 21.1427 71.1473 22.4997C71.1473 23.8752 71.3983 24.9347 71.9002 25.6782C72.4206 26.4218 73.1549 26.7935 74.1029 26.7935ZM93.5381 30.3346C92.4786 30.3346 91.5678 30.1208 90.8057 29.6933C90.0621 29.2472 89.4766 28.6245 89.0491 27.8252L88.9654 30H84.337V10.2036H89.1327V17.1462C89.5417 16.4213 90.1179 15.8265 90.8614 15.3618C91.6236 14.8971 92.5158 14.6647 93.5381 14.6647C94.8021 14.6647 95.8895 14.99 96.8004 15.6406C97.7298 16.2912 98.4454 17.202 98.9473 18.3731C99.4678 19.5441 99.728 20.9197 99.728 22.4997C99.728 24.0797 99.4678 25.4552 98.9473 26.6262C98.4454 27.7973 97.7298 28.7081 96.8004 29.3587C95.8895 30.0093 94.8021 30.3346 93.5381 30.3346ZM92.0325 26.7935C92.8504 26.7935 93.5103 26.4218 94.0121 25.6782C94.5326 24.9161 94.7928 23.8566 94.7928 22.4997C94.7928 21.1241 94.5419 20.0646 94.04 19.3211C93.5567 18.5775 92.8968 18.2058 92.0604 18.2058C91.447 18.2058 90.9172 18.3731 90.4711 18.7077C90.025 19.0422 89.6904 19.5348 89.4673 20.1854C89.2443 20.8174 89.1327 21.5888 89.1327 22.4997C89.1327 23.3919 89.2443 24.1633 89.4673 24.8139C89.6904 25.4459 90.0157 25.9385 90.4432 26.2917C90.8893 26.6262 91.4191 26.7935 92.0325 26.7935ZM102.117 30V14.9993H106.913V30H102.117ZM102.034 13.3264V9.75744H106.997V13.3264H102.034ZM111.251 30V15.1666C111.251 13.568 111.679 12.3412 112.534 11.4861C113.407 10.6311 114.736 10.2036 116.521 10.2036H119.978V13.661H117.692C117.116 13.661 116.697 13.8004 116.437 14.0792C116.195 14.358 116.075 14.7948 116.075 15.3897V30H111.251ZM109.02 19.2374V15.7521H119.783V19.2374H109.02ZM123.962 34.1823V30.7249H126.025C126.49 30.7249 126.834 30.6506 127.057 30.5019C127.28 30.3718 127.456 30.1301 127.586 29.7769L127.837 29.1078H126.583L121.369 14.9993H126.22L129.315 24.5908L132.215 14.9993H137.038L131.378 31.2547C131.007 32.3142 130.495 33.0671 129.845 33.5132C129.194 33.9593 128.283 34.1823 127.112 34.1823H123.962Z" fill="#333333"/>
</svg>
